<?xml version="1.0" encoding="UTF-8" standalone="no"?>
<!-- Created with Inkscape (http://www.inkscape.org/) -->

<svg
   xmlns:dc="http://purl.org/dc/elements/1.1/"
   xmlns:cc="http://creativecommons.org/ns#"
   xmlns:rdf="http://www.w3.org/1999/02/22-rdf-syntax-ns#"
   xmlns:svg="http://www.w3.org/2000/svg"
   xmlns="http://www.w3.org/2000/svg"
   xmlns:xlink="http://www.w3.org/1999/xlink"
   xmlns:sodipodi="http://sodipodi.sourceforge.net/DTD/sodipodi-0.dtd"
   xmlns:inkscape="http://www.inkscape.org/namespaces/inkscape"
   width="139.51956"
   height="85.801682"
   id="svg2"
   version="1.1"
   inkscape:version="0.48.4 r9939"
   sodipodi:docname="http-master.svg">
  <defs
     id="defs4">
    <filter
       id="filter2995"
       inkscape:label="Warm inside"
       inkscape:menu="Morphology"
       inkscape:menu-tooltip="Blurred colorized contour, filled inside"
       color-interpolation-filters="sRGB">
      <feColorMatrix
         id="feColorMatrix2997"
         values="1 0 0 0 0 0 1 0 0 0 0 0 1 0 0 0 0 0 1 0 "
         result="fbSourceGraphic" />
      <feGaussianBlur
         id="feGaussianBlur2999"
         stdDeviation="3"
         result="result1" />
      <feOffset
         id="feOffset3001"
         dx="2"
         dy="2"
         result="result6" />
      <feComposite
         in2="result1"
         id="feComposite3003"
         operator="in"
         result="result2"
         in="result6" />
      <feColorMatrix
         id="feColorMatrix3005"
         values="110"
         result="result3"
         type="hueRotate" />
      <feBlend
         in2="result3"
         id="feBlend3007"
         mode="screen"
         in="result2"
         result="result4" />
      <feConvolveMatrix
         id="feConvolveMatrix3009"
         order="3 3"
         kernelMatrix="-2 0 2 0 4 0 2 0 2"
         divisor="2"
         bias="0"
         targetX="0"
         in="result4"
         result="result5" />
      <feComposite
         in2="result5"
         id="feComposite3011"
         operator="atop"
         in="result2" />
    </filter>
    <filter
       id="filter3073"
       inkscape:label="Outline, double"
       inkscape:menu="Morphology"
       inkscape:menu-tooltip="Draws a smooth line inside colorized with the color it overlays"
       color-interpolation-filters="sRGB">
      <feGaussianBlur
         id="feGaussianBlur3075"
         stdDeviation="3"
         in="SourceAlpha"
         result="result1" />
      <feComposite
         id="feComposite3077"
         in2="result1"
         operator="arithmetic"
         k2="3.2"
         k1="-1"
         k4="-2"
         result="result3"
         k3="0" />
      <feColorMatrix
         id="feColorMatrix3079"
         values="0 0 0 0 0 0 1 0 0 0 0 0 1 0 0 0 0 0 10 0 "
         result="result2" />
      <feComposite
         id="feComposite3081"
         in2="result2"
         result="fbSourceGraphic"
         in="SourceGraphic"
         operator="out" />
      <feGaussianBlur
         id="feGaussianBlur3083"
         in="fbSourceGraphic"
         stdDeviation="0.5"
         result="result4" />
      <feComposite
         id="feComposite3085"
         in2="result4"
         operator="xor"
         in="result4"
         result="result5" />
      <feBlend
         id="feBlend3087"
         in2="result5"
         result="result6"
         mode="darken"
         in="result5" />
      <feBlend
         id="feBlend3089"
         in2="result6"
         in="result6"
         mode="darken" />
    </filter>
    <linearGradient
       y2="30.927999"
       x2="16.364"
       gradientTransform="translate(11.616,0)"
       y1="39.918999"
       gradientUnits="userSpaceOnUse"
       xlink:href="#linearGradient5060"
       x1="16.364"
       id="linearGradient4088" />
    <linearGradient
       y2="30.927999"
       x2="16.364"
       gradientTransform="translate(9.6162,0)"
       y1="39.918999"
       gradientUnits="userSpaceOnUse"
       xlink:href="#linearGradient5060"
       x1="16.364"
       id="linearGradient4086" />
    <linearGradient
       y2="30.927999"
       x2="16.364"
       gradientTransform="translate(7.6162,0)"
       y1="39.918999"
       gradientUnits="userSpaceOnUse"
       xlink:href="#linearGradient5060"
       x1="16.364"
       id="linearGradient4084" />
    <linearGradient
       y2="30.927999"
       x2="16.364"
       gradientTransform="translate(5.6162,0)"
       y1="39.918999"
       gradientUnits="userSpaceOnUse"
       xlink:href="#linearGradient5060"
       x1="16.364"
       id="linearGradient4082" />
    <linearGradient
       y2="30.927999"
       x2="16.364"
       gradientTransform="translate(3.6162,0)"
       y1="39.918999"
       gradientUnits="userSpaceOnUse"
       xlink:href="#linearGradient5060"
       x1="16.364"
       id="linearGradient4080" />
    <linearGradient
       y2="30.927999"
       x2="16.364"
       gradientTransform="translate(1.6162,0)"
       y1="39.918999"
       gradientUnits="userSpaceOnUse"
       xlink:href="#linearGradient5060"
       x1="16.364"
       id="linearGradient4078" />
    <linearGradient
       y2="30.927999"
       x2="16.364"
       gradientTransform="translate(12.707,0)"
       y1="39.918999"
       gradientUnits="userSpaceOnUse"
       xlink:href="#linearGradient4449"
       x1="16.364"
       id="linearGradient4076" />
    <linearGradient
       y2="30.927999"
       x2="16.364"
       gradientTransform="translate(10.707,0)"
       y1="39.918999"
       gradientUnits="userSpaceOnUse"
       xlink:href="#linearGradient4449"
       x1="16.364"
       id="linearGradient4074" />
    <linearGradient
       y2="30.927999"
       x2="16.364"
       gradientTransform="translate(8.7071,0)"
       y1="39.918999"
       gradientUnits="userSpaceOnUse"
       xlink:href="#linearGradient4449"
       x1="16.364"
       id="linearGradient4072" />
    <linearGradient
       y2="30.927999"
       x2="16.364"
       gradientTransform="translate(6.7071,0)"
       y1="39.918999"
       gradientUnits="userSpaceOnUse"
       xlink:href="#linearGradient4449"
       x1="16.364"
       id="linearGradient4070" />
    <linearGradient
       y2="30.927999"
       x2="16.364"
       gradientTransform="translate(4.7071,0)"
       y1="39.918999"
       gradientUnits="userSpaceOnUse"
       xlink:href="#linearGradient4449"
       x1="16.364"
       id="linearGradient4068" />
    <linearGradient
       y2="30.927999"
       x2="16.364"
       gradientTransform="translate(2.7071,0)"
       y1="39.918999"
       gradientUnits="userSpaceOnUse"
       xlink:href="#linearGradient4449"
       x1="16.364"
       id="linearGradient4066" />
    <linearGradient
       y2="26.787001"
       x2="22.312"
       gradientTransform="matrix(0.95593,0,0,1,0.86991,0)"
       y1="26.888"
       gradientUnits="userSpaceOnUse"
       x1="27.325001"
       id="linearGradient4062">
      <stop
         offset="0"
         stop-color="#fff"
         id="stop4422" />
      <stop
         offset="1"
         stop-opacity="0"
         stop-color="#fff"
         id="stop4424" />
    </linearGradient>
    <linearGradient
       y2="10.018"
       x2="23.233999"
       gradientTransform="translate(-5.0886001e-7,0.40406)"
       y1="34.464001"
       gradientUnits="userSpaceOnUse"
       x1="24.35"
       id="linearGradient4060">
      <stop
         offset="0"
         stop-color="#d2d2d2"
         id="stop4388" />
      <stop
         offset="1"
         stop-color="#dfdfdf"
         id="stop4390" />
    </linearGradient>
    <linearGradient
       y2="117.83"
       y1="117.83"
       gradientTransform="matrix(2.7402,0,0,0.14768,31.378,14.833)"
       x2="15.343"
       gradientUnits="userSpaceOnUse"
       x1="1.6422"
       id="linearGradient5403">
      <stop
         offset="0"
         stop-opacity="0"
         stop-color="#fff"
         id="stop179" />
      <stop
         offset=".10827"
         stop-opacity=".70659"
         stop-color="#fff"
         id="stop180" />
      <stop
         offset=".92054"
         stop-opacity=".70659"
         stop-color="#fff"
         id="stop181" />
      <stop
         offset="1"
         stop-opacity="0"
         stop-color="#fff"
         id="stop182" />
    </linearGradient>
    <linearGradient
       y2="372.57999"
       y1="372.57999"
       gradientTransform="matrix(8.1686,0,0,0.22862,31.378,-46.267)"
       x2="5.0855999"
       gradientUnits="userSpaceOnUse"
       xlink:href="#linearGradient272"
       x1="0.61210001"
       id="linearGradient5401" />
    <linearGradient
       y2="372.57999"
       y1="372.57999"
       gradientTransform="matrix(8.1686,0,0,0.22121,31.378,-48.274)"
       x2="5.0855999"
       gradientUnits="userSpaceOnUse"
       xlink:href="#linearGradient272"
       x1="0.61210001"
       id="linearGradient5399" />
    <linearGradient
       y2="117.83"
       y1="117.83"
       gradientTransform="matrix(2.7402,0,0,0.36494,31.378,-10.353)"
       x2="15.343"
       gradientUnits="userSpaceOnUse"
       x1="1.6422"
       id="linearGradient5397">
      <stop
         offset="0"
         stop-opacity="0"
         stop-color="#686868"
         id="stop159" />
      <stop
         offset=".23762"
         stop-color="#686868"
         id="stop162" />
      <stop
         offset=".7811"
         stop-color="#686868"
         id="stop163" />
      <stop
         offset="1"
         stop-opacity="0"
         stop-color="#686868"
         id="stop160" />
    </linearGradient>
    <linearGradient
       id="linearGradient4449">
      <stop
         offset="0"
         stop-color="#fff"
         id="stop4451" />
      <stop
         offset="1"
         stop-opacity="0"
         stop-color="#fff"
         id="stop4453" />
    </linearGradient>
    <linearGradient
       id="linearGradient272">
      <stop
         offset="0"
         stop-opacity="0"
         stop-color="#474747"
         id="stop273" />
      <stop
         offset=".1"
         stop-color="#474747"
         id="stop275" />
      <stop
         offset=".9"
         stop-color="#474747"
         id="stop276" />
      <stop
         offset="1"
         stop-opacity="0"
         stop-color="#474747"
         id="stop274" />
    </linearGradient>
    <linearGradient
       y2="609.51001"
       x2="302.85999"
       gradientTransform="matrix(2.7744,0,0,1.9697,-1892.2,-872.89)"
       y1="366.64999"
       gradientUnits="userSpaceOnUse"
       x1="302.85999"
       id="linearGradient6715">
      <stop
         offset="0"
         stop-opacity="0"
         id="stop5050" />
      <stop
         offset=".5"
         id="stop5056" />
      <stop
         offset="1"
         stop-opacity="0"
         id="stop5052" />
    </linearGradient>
    <radialGradient
       r="117.14"
       gradientTransform="matrix(2.7744,0,0,1.9697,-1891.6,-872.89)"
       cx="605.71002"
       cy="486.64999"
       gradientUnits="userSpaceOnUse"
       xlink:href="#linearGradient5060"
       id="radialGradient6717" />
    <linearGradient
       id="linearGradient5060">
      <stop
         offset="0"
         id="stop5062" />
      <stop
         offset="1"
         stop-opacity="0"
         id="stop5064" />
    </linearGradient>
    <radialGradient
       r="117.14"
       gradientTransform="matrix(-2.7744,0,0,1.9697,112.76,-872.89)"
       cx="605.71002"
       cy="486.64999"
       gradientUnits="userSpaceOnUse"
       xlink:href="#linearGradient5060"
       id="radialGradient6719" />
    <linearGradient
       y2="248.63"
       x2="153"
       gradientTransform="matrix(0.37857,0,0,0.37857,603.32,239.36)"
       y1="15.424"
       gradientUnits="userSpaceOnUse"
       x1="99.777"
       id="linearGradient30344">
      <stop
         offset="0"
         stop-color="#184375"
         id="stop53300-0" />
      <stop
         offset="1"
         stop-color="#C8BDDC"
         id="stop53302-8" />
    </linearGradient>
    <radialGradient
       r="11.69"
       gradientTransform="matrix(1.3993,-2.2344e-7,8.1962e-8,0.51326,4.3651,4.8393)"
       cx="14.288"
       cy="68.873001"
       gradientUnits="userSpaceOnUse"
       fy="72.568001"
       id="radialGradient30342">
      <stop
         offset="0"
         stop-opacity=".32673"
         id="stop2302" />
      <stop
         offset="1"
         stop-opacity="0"
         id="stop2304" />
    </radialGradient>
    <linearGradient
       x1="113.99"
       y1="179.86"
       gradientTransform="translate(251.09,444.85)"
       x2="139.03999"
       gradientUnits="userSpaceOnUse"
       y2="-20.49"
       id="linearGradient3824">
      <stop
         offset="0"
         id="stop3361" />
      <stop
         offset="1"
         stop-opacity="0"
         id="stop3363" />
    </linearGradient>
    <linearGradient
       x1="33.719002"
       y1="366.29999"
       gradientTransform="translate(251.02,443.59)"
       x2="-142.66"
       gradientUnits="userSpaceOnUse"
       y2="-72.052002"
       id="linearGradient3819">
      <stop
         offset="0"
         id="stop3223" />
      <stop
         offset=".5"
         stop-color="#787878"
         id="stop3469" />
      <stop
         offset="1"
         stop-opacity="0"
         id="stop3225" />
    </linearGradient>
    <radialGradient
       r="2.2695999"
       gradientTransform="matrix(1.0553,0,0,57.423,243.68,-13894)"
       cx="117.05"
       cy="254.16"
       gradientUnits="userSpaceOnUse"
       id="radialGradient3816">
      <stop
         offset="0"
         id="stop3231" />
      <stop
         offset=".5"
         stop-opacity=".49804"
         id="stop3237" />
      <stop
         offset="1"
         stop-opacity="0"
         id="stop3233" />
    </radialGradient>
    <linearGradient
       x1="311.26001"
       y1="234.67"
       gradientTransform="translate(59.171,448.26)"
       x2="356.64999"
       gradientUnits="userSpaceOnUse"
       xlink:href="#linearGradient2423"
       y2="211.97"
       id="linearGradient3813" />
    <linearGradient
       x1="311.26001"
       y1="234.67"
       gradientTransform="translate(58.466,448.92)"
       x2="356.64999"
       gradientUnits="userSpaceOnUse"
       xlink:href="#linearGradient2423"
       y2="211.97"
       id="linearGradient3810" />
    <linearGradient
       x1="354.70001"
       y1="106.1"
       gradientTransform="translate(59.171,447.94)"
       x2="300.23001"
       gradientUnits="userSpaceOnUse"
       xlink:href="#linearGradient2423"
       y2="146.48"
       id="linearGradient3807" />
    <linearGradient
       x1="354.70001"
       y1="106.1"
       gradientTransform="translate(60.851,447.03)"
       x2="300.23001"
       gradientUnits="userSpaceOnUse"
       xlink:href="#linearGradient2423"
       y2="146.48"
       id="linearGradient3804" />
    <radialGradient
       r="2.7530999"
       gradientTransform="matrix(7.1332,1.8819e-5,-3.5367e-5,13.404,-466.8,-2581.6)"
       cx="117.01"
       cy="244.67"
       gradientUnits="userSpaceOnUse"
       id="radialGradient3801">
      <stop
         offset="0"
         stop-color="#58ff58"
         id="stop3337" />
      <stop
         offset="1"
         id="stop3339" />
    </radialGradient>
    <radialGradient
       r="4.8179002"
       gradientTransform="matrix(13.93,-0.5153,0.62027,10.417,-1347.2,-1792.4)"
       cx="108.83"
       cy="244.47"
       gradientUnits="userSpaceOnUse"
       id="radialGradient3798">
      <stop
         offset="0"
         stop-color="#00fd00"
         id="stop3241" />
      <stop
         offset="1"
         id="stop3243" />
    </radialGradient>
    <linearGradient
       x1="157.67999"
       y1="425.95001"
       gradientTransform="translate(218.06,423.37)"
       x2="156.10001"
       gradientUnits="userSpaceOnUse"
       y2="386.66"
       id="linearGradient3795">
      <stop
         offset="0"
         stop-color="#c7c7c7"
         id="stop3381" />
      <stop
         offset="1"
         stop-opacity="0"
         id="stop3383" />
    </linearGradient>
    <filter
       x="-0.073271997"
       height="1.6625"
       width="1.1465"
       y="-0.33125001"
       id="filter3693"
       color-interpolation-filters="sRGB">
      <feGaussianBlur
         stdDeviation="6.4490457"
         id="feGaussianBlur3695" />
    </filter>
    <filter
       x="-0.69445997"
       height="2.3072"
       width="2.3889"
       y="-0.65360999"
       id="filter3671"
       color-interpolation-filters="sRGB">
      <feGaussianBlur
         stdDeviation="0.2443131"
         id="feGaussianBlur3673" />
    </filter>
    <filter
       x="-0.98315001"
       height="3.0265"
       width="2.9663"
       y="-1.0132999"
       id="filter3587"
       color-interpolation-filters="sRGB">
      <feGaussianBlur
         stdDeviation="0.81124934"
         id="feGaussianBlur3589" />
    </filter>
    <linearGradient
       id="linearGradient2423">
      <stop
         offset="0"
         id="stop2425" />
      <stop
         offset="1"
         stop-opacity="0"
         id="stop2427" />
    </linearGradient>
  </defs>
  <sodipodi:namedview
     id="base"
     pagecolor="#ffffff"
     bordercolor="#666666"
     borderopacity="1.0"
     inkscape:pageopacity="0.0"
     inkscape:pageshadow="2"
     inkscape:zoom="2.8"
     inkscape:cx="153.08956"
     inkscape:cy="25.468103"
     inkscape:document-units="px"
     inkscape:current-layer="layer1"
     showgrid="false"
     inkscape:window-width="2095"
     inkscape:window-height="746"
     inkscape:window-x="43"
     inkscape:window-y="291"
     inkscape:window-maximized="0"
     fit-margin-top="0"
     fit-margin-left="0"
     fit-margin-right="0"
     fit-margin-bottom="0" />
  <metadata
     id="metadata7">
    <rdf:RDF>
      <cc:Work
         rdf:about="">
        <dc:format>image/svg+xml</dc:format>
        <dc:type
           rdf:resource="http://purl.org/dc/dcmitype/StillImage" />
        <dc:title></dc:title>
      </cc:Work>
    </rdf:RDF>
  </metadata>
  <g
     inkscape:label="Layer 1"
     inkscape:groupmode="layer"
     id="layer1"
     transform="translate(-175.43103,-17.242841)">
    <flowRoot
       xml:space="preserve"
       id="flowRoot3091"
       style="font-size:64px;font-style:normal;font-variant:normal;font-weight:normal;font-stretch:normal;line-height:125%;letter-spacing:0px;word-spacing:0px;fill:#000000;fill-opacity:1;stroke:none;font-family:Death Devil;-inkscape-font-specification:Death Devil"><flowRegion
         id="flowRegion3093"><rect
           id="rect3095"
           width="695.49005"
           height="123.74369"
           x="38.890873"
           y="110.90001" /></flowRegion><flowPara
         id="flowPara3097"></flowPara></flowRoot>    <g
       style="font-size:110.45143127px;font-style:normal;font-variant:normal;font-weight:normal;font-stretch:normal;text-align:center;line-height:125%;letter-spacing:0px;word-spacing:0px;text-anchor:middle;fill:#000000;fill-opacity:1;stroke:none;font-family:Death Devil;-inkscape-font-specification:Death Devil"
       id="text6001"
       transform="translate(0,-3.071429)">
      <path
         d="m 204.06105,20.31427 0,28.9935 5.05315,0 0,-10.43766 c 0,-3.065024 2.07097,-5.591603 5.05316,-5.591603 2.69225,0 4.63896,1.573936 4.63896,5.301668 l 0,10.727595 5.05315,0 0,-10.769014 c 0,-6.005791 -2.568,-9.940629 -8.3667,-9.940629 -2.31947,0 -4.55612,0.704131 -6.37857,3.065027 l 0,-11.348884 -5.05315,0"
         style="font-size:41.41928482px;font-family:Nexa Bold;-inkscape-font-specification:Nexa Bold"
         id="path7029"
         inkscape:connector-curvature="0" />
      <path
         d="m 230.15844,23.669232 0,5.26025 -3.81058,0 0,4.349025 3.81058,0 0,8.822307 c 0,5.094567 2.89935,7.621148 7.33121,7.455471 1.53251,-0.04142 2.73367,-0.289935 4.18335,-0.869804 l -1.40826,-4.307606 c -0.74554,0.372773 -1.65677,0.621289 -2.44374,0.621289 -1.57393,0 -2.65083,-0.952645 -2.65083,-2.89935 l 0,-8.822307 5.67444,0 0,-4.349025 -5.63302,0 0,-5.7987 -5.05315,0.53845"
         style="font-size:41.41928482px;font-family:Nexa Bold;-inkscape-font-specification:Nexa Bold"
         id="path7031"
         inkscape:connector-curvature="0" />
      <path
         d="m 246.66143,23.669232 0,5.26025 -3.81057,0 0,4.349025 3.81057,0 0,8.822307 c 0,5.094567 2.89936,7.621148 7.33122,7.455471 1.53251,-0.04142 2.73367,-0.289935 4.18335,-0.869804 l -1.40826,-4.307606 c -0.74555,0.372773 -1.65677,0.621289 -2.44374,0.621289 -1.57393,0 -2.65083,-0.952645 -2.65083,-2.89935 l 0,-8.822307 5.67444,0 0,-4.349025 -5.63302,0 0,-5.7987 -5.05316,0.53845"
         style="font-size:41.41928482px;font-family:Nexa Bold;-inkscape-font-specification:Nexa Bold"
         id="path7033"
         inkscape:connector-curvature="0" />
      <path
         d="m 272.40093,44.917326 c -3.4378,0 -5.7987,-2.609419 -5.7987,-5.7987 0,-3.189282 2.15381,-5.7987 5.7987,-5.7987 3.64489,0 5.7987,2.609418 5.7987,5.7987 0,3.189281 -2.3609,5.7987 -5.7987,5.7987 m -6.25431,12.922816 0,-10.934691 c 1.44967,2.236639 4.63896,2.89935 6.79276,2.89935 6.54424,0 10.3134,-4.721804 10.3134,-10.686175 0,-6.005791 -4.18335,-10.686176 -10.47908,-10.686176 -2.31947,0 -5.05315,0.994065 -6.62708,3.272124 l -0.33136,-2.816512 -4.72179,0 0,28.95208 5.05315,0"
         style="font-size:41.41928482px;font-family:Nexa Bold;-inkscape-font-specification:Nexa Bold"
         id="path7035"
         inkscape:connector-curvature="0" />
    </g>
    <path
       inkscape:connector-curvature="0"
       id="path6007"
       d="m 279.5804,64.434711 -70.51583,0"
       style="fill:#000000;fill-opacity:1;stroke:#000000;stroke-width:4;stroke-linecap:butt;stroke-linejoin:miter;stroke-miterlimit:4;stroke-opacity:1;stroke-dasharray:none"
       sodipodi:nodetypes="cc" />
    <path
       style="fill:#000000;fill-opacity:1;stroke:#000000;stroke-width:4;stroke-linecap:round;stroke-miterlimit:4;stroke-opacity:1;stroke-dashoffset:0"
       d="m 281.04694,72.847411 c -5.3332,0 -9.65661,-3.983335 -9.65661,-8.897028 0,-4.913698 4.32341,-8.897033 9.65661,-8.897033 5.33319,0 9.65659,3.983335 9.65659,8.897033 0,4.913693 -4.3234,8.897028 -9.65659,8.897028 z"
       id="path6009"
       inkscape:connector-curvature="0" />
    <path
       style="fill:#000000;fill-opacity:1;stroke:#000000;stroke-width:4;stroke-linecap:round;stroke-miterlimit:4;stroke-opacity:1;stroke-dashoffset:0"
       d="m 243.37355,72.847411 c -5.3332,0 -9.65661,-3.983335 -9.65661,-8.897028 0,-4.913698 4.32341,-8.897033 9.65661,-8.897033 5.33319,0 9.65659,3.983335 9.65659,8.897033 0,4.913693 -4.3234,8.897028 -9.65659,8.897028 z"
       id="path6011"
       inkscape:connector-curvature="0" />
    <path
       style="fill:#000000;fill-opacity:1;stroke:#000000;stroke-width:4;stroke-linecap:round;stroke-miterlimit:4;stroke-opacity:1;stroke-dashoffset:0"
       d="m 205.70015,72.847411 c -5.3332,0 -9.65661,-3.983335 -9.65661,-8.897028 0,-4.913698 4.32341,-8.897033 9.65661,-8.897033 5.33319,0 9.65659,3.983335 9.65659,8.897033 0,4.913693 -4.3234,8.897028 -9.65659,8.897028 z"
       id="path6013"
       inkscape:connector-curvature="0" />
    <g
       style="font-size:110.45143127px;font-style:normal;font-variant:normal;font-weight:normal;font-stretch:normal;text-align:center;line-height:125%;letter-spacing:0px;word-spacing:0px;text-anchor:middle;fill:#000000;fill-opacity:1;stroke:none;font-family:Death Devil;-inkscape-font-specification:Death Devil"
       id="text6656"
       transform="translate(0,-13.071429)">
      <path
         d="m 194.06971,115.41183 0,-10.93469 c 0,-2.69225 1.69819,-5.053157 4.43186,-5.053157 2.73367,0 3.85199,2.278067 3.85199,4.970317 l 0,11.01753 5.05316,0 0,-11.01753 c 0,-6.130051 -2.85794,-9.692115 -8.65663,-9.692115 -2.65083,0 -5.01174,0.828388 -6.83419,3.727735 -1.15973,-2.816508 -3.60348,-3.810574 -6.04721,-3.810574 -1.94671,0 -4.30761,0.745549 -5.38451,2.816511 l -0.37277,-2.485157 -4.68038,0 0,20.46113 5.05315,0 0,-10.93469 c 0,-2.69225 1.61536,-5.135995 4.34903,-5.135995 2.77509,0 4.18334,2.443745 4.18334,5.135995 l 0,10.93469 5.05316,0"
         style="font-size:41.41928482px;font-family:Nexa Bold;-inkscape-font-specification:Nexa Bold"
         id="path7013"
         inkscape:connector-curvature="0" />
      <path
         d="m 228.59203,97.808631 c -1.15974,-2.029543 -3.76915,-3.313543 -6.50282,-3.313543 -5.96438,-0.04142 -10.64476,3.644904 -10.64476,10.686172 0,7.16553 4.47329,10.89328 10.5205,10.85186 2.27806,-0.0414 5.46734,-1.20117 6.62708,-3.60348 l 0.24852,2.98219 4.76322,0 0,-20.41971 -4.84606,0 -0.16568,2.816511 m -6.04721,1.201159 c 7.95249,0 7.95249,12.38437 0,12.38437 -3.35496,0 -6.04722,-2.31949 -6.04722,-6.2129 0,-3.89341 2.69226,-6.17147 6.04722,-6.17147"
         style="font-size:41.41928482px;font-family:Nexa Bold;-inkscape-font-specification:Nexa Bold"
         id="path7015"
         inkscape:connector-curvature="0" />
      <path
         d="m 254.03707,97.104503 c -2.3609,-2.070962 -4.76323,-2.692253 -7.95251,-2.692253 -3.72773,0 -8.61521,1.656776 -8.61521,6.37857 0,4.63895 4.59755,6.04722 8.44954,6.33715 2.89934,0.16568 4.05909,0.74555 4.05909,2.1538 0,1.4911 -1.78104,2.48516 -3.68632,2.44374 -2.27806,-0.0414 -5.59161,-1.24258 -7.04128,-2.85793 l -2.48516,3.60348 c 2.98219,3.10644 6.2129,3.64489 9.4436,3.64489 5.84011,0 8.78089,-3.10645 8.78089,-6.70992 0,-5.42592 -4.88748,-6.29573 -8.73947,-6.54425 -2.60941,-0.16567 -3.81057,-0.91122 -3.81057,-2.23664 0,-1.283994 1.32541,-2.029543 3.72773,-2.029543 1.94671,0 3.60348,0.455614 5.05315,1.822453 l 2.81652,-3.313547"
         style="font-size:41.41928482px;font-family:Nexa Bold;-inkscape-font-specification:Nexa Bold"
         id="path7017"
         inkscape:connector-curvature="0" />
      <path
         d="m 260.25967,89.77329 0,5.260249 -3.81058,0 0,4.349025 3.81058,0 0,8.822306 c 0,5.09457 2.89935,7.62115 7.33121,7.45547 1.53251,-0.0414 2.73368,-0.28993 4.18335,-0.8698 l -1.40826,-4.30761 c -0.74554,0.37278 -1.65677,0.62129 -2.44373,0.62129 -1.57393,0 -2.65084,-0.95264 -2.65084,-2.89935 l 0,-8.822306 5.67444,0 0,-4.349025 -5.63302,0 0,-5.7987 -5.05315,0.538451"
         style="font-size:41.41928482px;font-family:Nexa Bold;-inkscape-font-specification:Nexa Bold"
         id="path7019"
         inkscape:connector-curvature="0" />
      <path
         d="m 294.94573,107.00371 c 0.78696,-8.408104 -3.47923,-12.63288 -10.31341,-12.63288 -6.62708,0 -10.85185,4.473289 -10.85185,10.68618 0,6.54424 4.18336,10.89327 11.22463,10.89327 3.10644,0 6.62708,-1.07691 8.78089,-3.31354 l -3.23071,-3.18929 c -1.15974,1.20116 -3.60348,1.90529 -5.46734,1.90529 -3.56206,0 -5.75729,-1.82245 -6.08864,-4.34903 l 15.94643,0 m -15.86359,-4.18335 c 0.74555,-2.65083 2.98219,-3.976247 5.71586,-3.976247 2.89935,0 4.97032,1.325417 5.30167,3.976247 l -11.01753,0"
         style="font-size:41.41928482px;font-family:Nexa Bold;-inkscape-font-specification:Nexa Bold"
         id="path7021"
         inkscape:connector-curvature="0" />
      <path
         d="m 298.87991,94.99212 0,20.41971 5.05316,0 0,-10.76902 c 0,-3.76915 2.44374,-5.177408 5.09457,-5.177408 1.65677,0 2.60941,0.455613 3.64489,1.325418 l 2.27806,-4.390445 c -1.11831,-1.118319 -3.14786,-1.946706 -5.26024,-1.946706 -2.07097,0 -4.18335,0.372776 -5.75728,2.89935 l -0.37278,-2.360899 -4.68038,0"
         style="font-size:41.41928482px;font-family:Nexa Bold;-inkscape-font-specification:Nexa Bold"
         id="path7023"
         inkscape:connector-curvature="0" />
    </g>
  </g>
</svg>
